<?xml version="1.0" standalone="no"?>
<!DOCTYPE svg PUBLIC "-//W3C//DTD SVG 20010904//EN"
 "http://www.w3.org/TR/2001/REC-SVG-20010904/DTD/svg10.dtd">
<svg version="1.0" xmlns="http://www.w3.org/2000/svg"
 width="1254.000000pt" height="1254.000000pt" viewBox="0 0 1254.000000 1254.000000"
 preserveAspectRatio="xMidYMid meet">

<g transform="translate(0.000000,1254.000000) scale(0.100000,-0.100000)"
fill="#000000" stroke="none">
<path d="M5955 10765 c-399 -42 -790 -141 -1149 -292 -235 -99 -416 -196 -647
-348 -269 -176 -451 -325 -674 -549 -578 -582 -995 -1341 -1165 -2120 -78
-358 -95 -523 -95 -926 1 -358 9 -453 61 -730 82 -435 235 -846 475 -1271 169
-300 164 -289 164 -399 0 -95 -1 -96 -114 -425 -264 -772 -349 -1027 -376
-1137 -27 -115 -28 -118 -11 -162 34 -88 122 -98 301 -31 55 20 399 157 765
303 712 285 734 292 827 262 21 -7 112 -47 203 -90 465 -219 894 -343 1360
-394 883 -97 1784 117 2535 602 635 410 1173 1025 1511 1727 193 401 316 822
381 1295 26 191 26 729 0 945 -104 860 -453 1673 -996 2320 -106 127 -347 371
-474 480 -582 503 -1278 817 -2047 926 -190 27 -643 35 -835 14z m750 -21
c730 -80 1425 -369 2015 -840 164 -131 468 -433 610 -606 451 -552 758 -1201
900 -1906 151 -753 106 -1445 -139 -2164 -222 -649 -646 -1291 -1159 -1752
-556 -499 -1172 -811 -1888 -955 -255 -52 -411 -65 -744 -65 -270 0 -339 3
-485 23 -479 63 -902 193 -1353 414 -187 92 -239 95 -429 19 -54 -22 -316
-127 -583 -234 -803 -323 -872 -347 -943 -327 -56 15 -80 53 -74 114 8 75 67
278 172 585 51 151 148 436 215 632 113 331 122 364 123 435 1 43 -4 96 -11
118 -6 22 -53 112 -103 200 -413 720 -591 1347 -593 2085 -1 371 26 605 110
969 82 356 182 630 355 974 394 783 1023 1432 1779 1837 520 278 1058 426
1685 464 107 6 396 -4 540 -20z"/>
</g>
<g transform="translate(0.000000,1254.000000) scale(0.100000,-0.100000)"
fill="#e9572b" stroke="none">
<path d="M5480 8241 c-224 -49 -443 -180 -584 -350 -32 -39 -63 -71 -67 -71
-5 0 -9 35 -9 78 0 192 -84 291 -271 321 -231 38 -441 -18 -563 -149 -67 -73
-101 -135 -127 -238 -18 -72 -19 -123 -19 -1393 0 -939 3 -1333 11 -1371 36
-168 174 -309 340 -347 57 -13 192 -14 259 -1 127 24 261 123 314 233 53 107
55 147 56 998 1 834 1 842 50 971 53 141 176 272 325 344 132 64 188 74 435
83 183 7 223 11 269 29 111 44 166 101 216 227 41 101 47 252 15 357 -29 95
-43 121 -96 178 -29 31 -69 59 -116 81 -71 32 -78 33 -213 36 -107 2 -160 -2
-225 -16z"/>
<path d="M7385 8245 c-215 -35 -382 -92 -530 -180 -241 -143 -400 -348 -480
-620 -33 -109 -45 -336 -26 -450 42 -242 163 -437 362 -582 130 -96 398 -209
702 -297 450 -131 540 -176 591 -300 23 -55 20 -95 -11 -157 -48 -93 -140
-140 -321 -162 -217 -26 -510 44 -752 179 -128 72 -196 94 -285 94 -109 0
-180 -28 -263 -105 -106 -98 -148 -202 -140 -344 8 -137 72 -235 217 -332 105
-70 254 -140 413 -193 249 -83 462 -111 766 -103 220 6 327 21 502 73 410 123
674 378 777 750 24 88 27 116 27 259 1 144 -2 170 -26 257 -69 247 -211 419
-466 564 -111 64 -318 142 -632 238 -385 119 -429 138 -502 213 -45 47 -58 79
-58 146 1 176 171 268 464 254 164 -8 295 -44 507 -138 65 -28 84 -32 156 -32
129 1 226 53 309 165 91 124 107 274 44 405 -46 93 -126 160 -285 238 -144 71
-244 104 -427 141 -158 32 -488 42 -633 19z"/>
</g>
</svg>
